<svg xmlns="http://www.w3.org/2000/svg" viewBox="0 0 200 200">
    <defs>
        <linearGradient id="oledBg" x1="0%" y1="0%" x2="100%" y2="100%">
            <stop offset="0%" stop-color="#2A2A35"/>
            <stop offset="50%" stop-color="#0A0A0C"/>
            <stop offset="100%" stop-color="#000000"/>
        </linearGradient>

        <linearGradient id="textGrad" x1="0%" y1="0%" x2="0%" y2="100%">
            <stop offset="0%" stop-color="#FFFFFF"/>
            <stop offset="100%" stop-color="#D0D0D5"/>
        </linearGradient>

        <path id="puretypeP_Balanced"
              d="M 65 50 L 115 50 C 145 50 155 65 155 85 C 155 105 145 120 115 120 L 95 120 L 95 140 L 80 150 L 65 150 Z M 95 75 L 110 75 C 120 75 125 78 125 85 C 125 92 120 95 110 95 L 95 95 Z"
              fill-rule="evenodd" transform="translate(18, 15) scale(0.8)"/>
    </defs>

    <rect x="0" y="0" width="200" height="200" rx="45" fill="url(#oledBg)" stroke="#3A3A45" stroke-width="2"/>

    <use href="#puretypeP_Balanced" fill="#FF2A2A" opacity="0.9" transform="translate(-2, 0)"/>

    <use href="#puretypeP_Balanced" fill="#00A2FF" opacity="0.9" transform="translate(2, 0)"/>

    <use href="#puretypeP_Balanced" fill="url(#textGrad)"/>

    <path d="M 45 55 L 35 55 L 35 145 L 45 145" fill="none" stroke="#555566" stroke-width="4" stroke-linecap="round"
          stroke-linejoin="round"/>
    <path d="M 155 55 L 165 55 L 165 145 L 155 145" fill="none" stroke="#555566" stroke-width="4" stroke-linecap="round"
          stroke-linejoin="round"/>

    <rect x="88" y="170" width="6" height="6" fill="#FF2A2A" rx="1.5"/>
    <rect x="97" y="170" width="6" height="6" fill="#00FF66" rx="1.5"/>
    <rect x="106" y="170" width="6" height="6" fill="#00A2FF" rx="1.5"/>
</svg>
